<svg role="img" viewBox="0 0 24 24" xmlns="http://www.w3.org/2000/svg"><title>OpenAI</title><path d="M22.2819 9.8211a5.9847 5.9847 0 0 0-.5157-4.9108 6.0462 6.0462 0 0 0-6.5098-2.9A6.0651 6.0651 0 0 0 4.9807 4.1818a5.9847 5.9847 0 0 0-3.9977 2.9 6.0462 6.0462 0 0 0 .7427 7.0966 5.98 5.98 0 0 0 .511 4.9107 6.0462 6.0462 0 0 0 6.5146 2.9001A5.9847 5.9847 0 0 0 13.2599 24a6.0557 6.0557 0 0 0 5.7718-4.2058 5.9894 5.9894 0 0 0 3.9977-2.9001 6.0557 6.0557 0 0 0-.7475-7.0729zm-9.022 12.6081a4.4755 4.4755 0 0 1-2.8764-1.0408l.1419-.0804 4.7783-2.7582a.7948.7948 0 0 0 .3927-.6813v-6.7369l2.02 1.1686a6.37 6.37 0 0 1 .0178 5.4847 2.8756 2.8756 0 0 1-1.3533 1.3431 4.47 4.47 0 0 1-3.1209.5074zm-9.1363-3.6444a4.47 4.47 0 0 1 .3315-3.0487 2.9134 2.9134 0 0 1 1.7486-1.3732 6.35 6.35 0 0 1 5.39.5662l-4.7828 2.7663a.7915.7915 0 0 0-.3935.6814v6.7369a4.42 4.42 0 0 1-2.2938-6.3294zm-1.8009-10.8719a4.4607 4.4607 0 0 1 2.535-1.7486 2.87 2.87 0 0 1 1.9566.2166 6.36 6.36 0 0 1 3.5502 4.1956 5.86 5.86 0 0 1-.0355.856l-4.7829-2.7648a.7936.7936 0 0 0-.7849 0l-5.833 3.3676a4.4755 4.4755 0 0 1 3.3934-4.1224zm15.4854 4.1179a.7936.7936 0 0 0 .7849 0l5.8329-3.3676a4.4755 4.4755 0 0 1-3.394 4.1224 4.4755 4.4755 0 0 1-2.535 1.7486 2.87 2.87 0 0 1-1.9567-.2166 6.36 6.36 0 0 1-3.5501-4.1956 5.86 5.86 0 0 1 .0356-.856zM8.887 2.0811a2.868 2.868 0 0 1 1.3533-1.3431 4.47 4.47 0 0 1 3.1209-.5074 4.4755 4.4755 0 0 1 2.8763 1.0408l-.1418.0804-4.7783 2.7582a.7948.7948 0 0 0-.3927.6813v6.7369l-2.02-1.1686a6.37 6.37 0 0 1-.019-5.4851zM11.6376 13.916l4.7828-2.7663a.7915.7915 0 0 0 .3935-.6814v-6.7369a4.42 4.42 0 0 1 2.2938 6.3294 4.47 4.47 0 0 1-.3315 3.0487 2.9134 2.9134 0 0 1-1.7486 1.3732 6.35 6.35 0 0 1-5.3899-.5662z"/></svg>
